<svg height="24" viewBox="0 0 24 24" width="24" xmlns="http://www.w3.org/2000/svg"><g fill="none" stroke-linecap="round" stroke-linejoin="round"><g transform="translate(-3 -3)"><path d="m27 15a12 12 0 1 1 -12-12 12 12 0 0 1 12 12z"/><path d="m15 25c5.51402092 0 10-4.48597908 10-10 0-5.51401997-4.48597908-10-10-10-5.51401997 0-10 4.48598003-10 10 0 5.51402092 4.48598003 10 10 10m0 2c-6.62742043 0-12-5.37257957-12-12s5.37257957-12 12-12 12 5.37257957 12 12-5.37257957 12-12 12z" fill="#fff"/></g><path d="m18 9v7.834l5.222 2.611" stroke="#fff" stroke-width="2" transform="translate(-6 -3.5)"/></g></svg>