<svg height="74" viewBox="0 0 74 74" width="74" xmlns="http://www.w3.org/2000/svg" xmlns:xlink="http://www.w3.org/1999/xlink"><filter id="a" filterUnits="userSpaceOnUse" height="74" width="74" x="0" y="0"><feOffset/><feGaussianBlur result="b" stdDeviation="4"/><feFlood flood-opacity=".161"/><feComposite in2="b" operator="in"/><feComposite in="SourceGraphic"/></filter><g filter="url(#a)"><path d="m50 43.75a6.268 6.268 0 0 1 -6.25 6.25h-37.5a6.268 6.268 0 0 1 -6.25-6.25v-37.5a6.268 6.268 0 0 1 6.25-6.25h37.5a6.268 6.268 0 0 1 6.25 6.25z" fill="#3c579e" transform="translate(12 12)"/></g><path d="m57.745 61.113v-19.592h-6.645v-6.986h6.649v-6.449c0-6.5 3.651-10.336 9.166-10.336a39.775 39.775 0 0 1 5.461.39v7.305h-4.44c-3 0-3.561 1.565-3.561 3.765v5.327h7.686l-1.086 6.987h-6.6v19.589z" fill="#fff" transform="translate(-18.453 .887)"/></svg>