<svg height="161" viewBox="0 0 187 161" width="187" xmlns="http://www.w3.org/2000/svg"><path d="m128.737 0a20 20 0 0 1 17.3 9.956l35.135 60.5a20 20 0 0 1 0 20.088l-35.135 60.5a20 20 0 0 1 -17.3 9.956h-70.474a20 20 0 0 1 -17.3-9.956l-35.13-60.5a20 20 0 0 1 0-20.088l35.135-60.5a20 20 0 0 1 17.295-9.956z" fill="#29c66f"/><path d="m125.684 0a20 20 0 0 1 17.335 10.024l34.241 59.5a20 20 0 0 1 0 19.951l-34.241 59.5a20 20 0 0 1 -17.335 10.025h-68.368a20 20 0 0 1 -17.335-10.024l-34.24-59.5a20 20 0 0 1 0-19.951l34.241-59.5a20 20 0 0 1 17.334-10.025z" fill="#fff" transform="translate(2 1)"/><path d="m122 0a20 20 0 0 1 17.288 9.944l32.866 56.5a20 20 0 0 1 0 20.113l-32.866 56.5a20 20 0 0 1 -17.288 9.943h-66a20 20 0 0 1 -17.288-9.944l-32.862-56.5a20 20 0 0 1 0-20.113l32.866-56.5a20 20 0 0 1 17.284-9.943z" fill="#29c66f" transform="translate(4.5 4)"/><path d="m87.52 0a20 20 0 0 1 17.27 9.913l21.319 36.5a20 20 0 0 1 0 20.174l-21.319 36.5a20 20 0 0 1 -17.27 9.913h-43.04a20 20 0 0 1 -17.27-9.913l-21.319-36.5a20 20 0 0 1 0-20.174l21.319-36.5a20 20 0 0 1 17.27-9.913z" fill="#fff" transform="translate(27.5 24)"/><path d="m83.65 0a20 20 0 0 1 17.36 10.069l20.309 35.5a20 20 0 0 1 0 19.862l-20.309 35.5a20 20 0 0 1 -17.36 10.069h-40.3a20 20 0 0 1 -17.36-10.069l-20.309-35.5a20 20 0 0 1 0-19.862l20.309-35.5a20 20 0 0 1 17.36-10.069z" fill="#0c0833" transform="translate(30 25)"/><g fill="#29c66f" font-family="Montserrat-Medium, Montserrat" font-weight="500" letter-spacing="-.002em"><text font-size="64" transform="translate(93.631 104.027)"><tspan x="-19.008" y="0">L</tspan></text><text font-size="36" transform="translate(108.631 85.006)"><tspan x="-10.332" y="0">2</tspan></text></g></svg>