<svg height="161.533" viewBox="0 0 169.847 161.533" width="169.847" xmlns="http://www.w3.org/2000/svg"><path d="m73.167 8.541a20 20 0 0 1 23.511 0l61.412 44.618a20 20 0 0 1 7.265 22.361l-23.455 72.194a20 20 0 0 1 -19.021 13.82h-75.91a20 20 0 0 1 -19.021-13.82l-23.458-72.194a20 20 0 0 1 7.265-22.361z" fill="#29c66f"/><path d="m71.541 8.541a20 20 0 0 1 23.511 0l59.785 43.437a20 20 0 0 1 7.263 22.36l-22.833 70.282a20 20 0 0 1 -19.021 13.82h-73.9a20 20 0 0 1 -19.021-13.82l-22.835-70.282a20 20 0 0 1 7.265-22.361z" fill="#fff" transform="translate(1.627 1.547)"/><path d="m69.1 8.541a20 20 0 0 1 23.511 0l57.346 41.664a20 20 0 0 1 7.265 22.361l-7.886 24.271-14.016 43.143c-2.677 8.24-19.021 13.82-19.021 13.82h-70.883a20 20 0 0 1 -19.021-13.82l-21.905-67.414a20 20 0 0 1 7.265-22.361z" fill="#29c66f" transform="translate(4.067 3.865)"/><path d="m48.058 8.541a20 20 0 0 1 23.511 0l36.3 26.376a20 20 0 0 1 7.265 22.361l-13.862 42.676a20 20 0 0 1 -19.021 13.82h-44.873a20 20 0 0 1 -19.021-13.82l-13.867-42.677a20 20 0 0 1 7.265-22.361z" fill="#fff" transform="translate(25.11 23.879)"/><path d="m46.191 8.541a20 20 0 0 1 23.511 0l34.435 25.019a20 20 0 0 1 7.263 22.36l-13.15 40.48a20 20 0 0 1 -19.021 13.82h-42.565a20 20 0 0 1 -19.021-13.82l-13.153-40.48a20 20 0 0 1 7.266-22.36z" fill="#0c0833" transform="translate(26.977 25.656)"/><g fill="#29c66f" font-family="Montserrat-Medium, Montserrat" font-weight="500" letter-spacing="-.002em"><text font-size="64" transform="translate(85.055 104.455)"><tspan x="-19.008" y="0">L</tspan></text><text font-size="36" transform="translate(100.055 84.432)"><tspan x="-6.66" y="0">1</tspan></text></g></svg>