<svg xmlns="http://www.w3.org/2000/svg" width="227.178" height="32.604" viewBox="0 0 227.178 32.604"><g transform="translate(0 0)"><path d="M5.614,68.6a9.782,9.782,0,0,1-4.293-3.94A10.7,10.7,0,0,1,0,59.44H8.495a3.038,3.038,0,0,0,1.221,2.608,5.82,5.82,0,0,0,3.5.9,7.193,7.193,0,0,0,3.526-.614,2.133,2.133,0,0,0,.994-1.96,1.7,1.7,0,0,0-.554-1.265,5.008,5.008,0,0,0-1.684-.969q-1.131-.434-3.118-.98A38.819,38.819,0,0,1,6.6,55.143,11.585,11.585,0,0,1,2.451,52.01,7.728,7.728,0,0,1,.745,46.861a8.773,8.773,0,0,1,1.4-4.99A8.867,8.867,0,0,1,6.27,38.648a17.41,17.41,0,0,1,6.653-1.128q6.169,0,9.32,2.678a9.259,9.259,0,0,1,3.152,7.461H16.853a2.491,2.491,0,0,0-.881-1.913,4.765,4.765,0,0,0-3.163-.8A5.044,5.044,0,0,0,10,45.495a1.7,1.7,0,0,0-.147,2.689,5.412,5.412,0,0,0,1.9,1,32.2,32.2,0,0,0,3.637.958,18.227,18.227,0,0,1,8.134,3.588,8.333,8.333,0,0,1,2.847,6.663A8.518,8.518,0,0,1,24.7,65.7a10.114,10.114,0,0,1-4.62,3.3,19.26,19.26,0,0,1-6.824,1.117A16.738,16.738,0,0,1,5.614,68.6Z" transform="translate(0 -37.52)" fill="#eee"/><path d="M136.061,67.893a16.472,16.472,0,0,1-6.043-5.934,16.021,16.021,0,0,1,0-16.333,16.648,16.648,0,0,1,14.347-8.076,16.877,16.877,0,0,1,6.8,1.458,14.754,14.754,0,0,1,5.761,4.544,15.323,15.323,0,0,1,3.005,7.665h-8.677a7.189,7.189,0,0,0-2.553-4.454,7.526,7.526,0,0,0-4.587-1.379,7.945,7.945,0,0,0-3.93.991,7.286,7.286,0,0,0-2.847,2.893,9.186,9.186,0,0,0-1.061,4.544,9.4,9.4,0,0,0,1.05,4.624,7,7,0,0,0,2.836,2.848,8.244,8.244,0,0,0,3.955.958,7.525,7.525,0,0,0,4.586-1.379,7.01,7.01,0,0,0,2.507-4.454h8.7a15.278,15.278,0,0,1-2.961,7.665,14.56,14.56,0,0,1-5.75,4.544,17.018,17.018,0,0,1-6.835,1.458A16.33,16.33,0,0,1,136.061,67.893Z" transform="translate(-99.358 -37.543)" fill="#eee"/><path d="M288.833,67.893a16.526,16.526,0,0,1-6.123-5.934,15.886,15.886,0,0,1,0-16.333,16.507,16.507,0,0,1,6.123-5.9,17.456,17.456,0,0,1,16.878,0,16.6,16.6,0,0,1,6.135,5.9,15.819,15.819,0,0,1,0,16.333,16.623,16.623,0,0,1-6.135,5.934,17.378,17.378,0,0,1-16.878,0ZM301.5,61.172a7.852,7.852,0,0,0,3.016-3,9.142,9.142,0,0,0,0-8.724,7.883,7.883,0,0,0-3.016-3,8.83,8.83,0,0,0-8.426,0,7.867,7.867,0,0,0-3.016,3,8.588,8.588,0,0,0-1.108,4.362,8.464,8.464,0,0,0,1.119,4.351,8.053,8.053,0,0,0,3.027,3,8.341,8.341,0,0,0,4.191,1.081A8.425,8.425,0,0,0,301.5,61.172Z" transform="translate(-218.07 -37.543)" fill="#eee"/><path d="M448.3,67.893a16.526,16.526,0,0,1-6.123-5.934,15.886,15.886,0,0,1,0-16.333,16.507,16.507,0,0,1,6.123-5.9,17.456,17.456,0,0,1,16.878,0,16.6,16.6,0,0,1,6.135,5.9,15.819,15.819,0,0,1,0,16.333,16.623,16.623,0,0,1-6.135,5.934,17.378,17.378,0,0,1-16.878,0Zm12.663-6.721a7.852,7.852,0,0,0,3.016-3,9.142,9.142,0,0,0,0-8.724,7.883,7.883,0,0,0-3.016-3,8.83,8.83,0,0,0-8.426,0,7.867,7.867,0,0,0-3.016,3,8.587,8.587,0,0,0-1.108,4.362,8.463,8.463,0,0,0,1.119,4.351,8.054,8.054,0,0,0,3.027,3,8.746,8.746,0,0,0,8.4.011Z" transform="translate(-342.069 -37.543)" fill="#eee"/><path d="M621.1,41.1a12.2,12.2,0,0,1,5.908,1.413,10.3,10.3,0,0,1,4.077,3.929,11.028,11.028,0,0,1,1.468,5.66,12.048,12.048,0,0,1-1.446,5.979,10.056,10.056,0,0,1-4.033,4,12.028,12.028,0,0,1-5.863,1.413h-5.174V72.08H607.52V41.1Zm1.277,14.283a3.59,3.59,0,0,0,1.208-1.366,4.082,4.082,0,0,0,.451-1.913,3.16,3.16,0,0,0-.451-1.583,3.835,3.835,0,0,0-1.221-1.3,2.887,2.887,0,0,0-1.626-.514h-4.7v7.176h4.678A2.95,2.95,0,0,0,622.376,55.383Z" transform="translate(-472.39 -40.297)" fill="#eee"/><path d="M736.644,44.336H726.77V41.1h23.339v3.234h-9.918V72.08h-3.548Z" transform="translate(-565.115 -40.297)" fill="#eee"/><path d="M856.28,41.1h3.548V72.08H856.28Z" transform="translate(-665.818 -40.297)" fill="#eee"/><path d="M906.828,56,895.713,41.1h4.224l9.106,12.37,9.082-12.37h4.224L911.256,56,923.1,72.08h-4.248l-9.8-13.555L899.214,72.08H894.99Z" transform="translate(-695.918 -40.297)" fill="#eee"/></g></svg>