<svg height="90.615" viewBox="0 0 113.269 90.615" width="113.269" xmlns="http://www.w3.org/2000/svg"><path d="m110.437 36.812h-11.327v-11.327a2.84 2.84 0 0 0 -2.832-2.832h-5.663a2.84 2.84 0 0 0 -2.832 2.832v11.327h-11.327a2.84 2.84 0 0 0 -2.832 2.832v5.663a2.84 2.84 0 0 0 2.832 2.832h11.327v11.327a2.84 2.84 0 0 0 2.832 2.834h5.663a2.84 2.84 0 0 0 2.832-2.832v-11.329h11.327a2.84 2.84 0 0 0 2.832-2.832v-5.663a2.84 2.84 0 0 0 -2.832-2.832zm-70.793 8.5a22.654 22.654 0 1 0 -22.654-22.658 22.652 22.652 0 0 0 22.654 22.653zm15.856 5.659h-2.954a30.808 30.808 0 0 1 -25.8 0h-2.96a23.793 23.793 0 0 0 -23.786 23.786v7.363a8.5 8.5 0 0 0 8.5 8.5h62.3a8.5 8.5 0 0 0 8.5-8.5v-7.363a23.793 23.793 0 0 0 -23.8-23.786z" fill="#7367ed"/></svg>