<svg height="32" viewBox="0 0 32 32" width="32" xmlns="http://www.w3.org/2000/svg"><g fill="#fff"><path d="m0 0h32v32h-32z" opacity="0"/><path d="m14.667 2a10.667 10.667 0 0 0 -10.667 10.561c0 7.306 9.4 15.439 9.8 15.786a1.333 1.333 0 0 0 1.733 0c.467-.347 9.8-8.48 9.8-15.787a10.667 10.667 0 0 0 -10.666-10.56zm0 23.533c-2.227-2.12-8-8-8-12.973a8 8 0 1 1 16 0c0 4.933-5.774 10.853-8 12.973z" transform="translate(1.333 .667)"/><path d="m13.167 6a4.667 4.667 0 1 0 4.667 4.667 4.667 4.667 0 0 0 -4.667-4.667zm0 6.667a2 2 0 1 1 2-2 2 2 0 0 1 -2 2z" transform="translate(2.833 2)"/></g></svg>