<svg height="24" viewBox="0 0 24 24" width="24" xmlns="http://www.w3.org/2000/svg"><g fill="#fff"><path d="m374.006 6.757a.751.751 0 0 1 -.751-.751v-3.848a.658.658 0 0 0 -.655-.658h-3.848a.751.751 0 1 1 0-1.5h3.848a2.161 2.161 0 0 1 2.158 2.158v3.848a.751.751 0 0 1 -.752.751z" transform="translate(-350.757)"/><path d="m.751 6.757a.751.751 0 0 1 -.751-.751v-3.848a2.161 2.161 0 0 1 2.158-2.158h3.848a.751.751 0 1 1 0 1.5h-3.848a.658.658 0 0 0 -.657.657v3.849a.751.751 0 0 1 -.75.751z"/><path d="m6.006 374.757h-3.848a2.161 2.161 0 0 1 -2.158-2.157v-3.848a.751.751 0 1 1 1.5 0v3.848a.658.658 0 0 0 .657.657h3.849a.751.751 0 0 1 0 1.5z" transform="translate(0 -350.757)"/><path d="m372.6 374.757h-3.848a.751.751 0 1 1 0-1.5h3.848a.658.658 0 0 0 .657-.657v-3.848a.751.751 0 0 1 1.5 0v3.848a2.161 2.161 0 0 1 -2.157 2.157z" transform="translate(-350.757 -350.757)"/><path d="m70.1 72.258h-3.942a2.161 2.161 0 0 1 -2.158-2.158v-3.942a2.161 2.161 0 0 1 2.158-2.158h3.942a2.161 2.161 0 0 1 2.158 2.158v3.942a2.161 2.161 0 0 1 -2.158 2.158zm-3.942-6.758a.658.658 0 0 0 -.657.657v3.943a.658.658 0 0 0 .657.657h3.942a.658.658 0 0 0 .657-.657v-3.942a.658.658 0 0 0 -.657-.658z" transform="translate(-60.997 -60.997)"/><path d="m70.1 280.258h-3.942a2.161 2.161 0 0 1 -2.158-2.158v-3.941a2.161 2.161 0 0 1 2.158-2.159h3.942a2.161 2.161 0 0 1 2.158 2.158v3.942a2.161 2.161 0 0 1 -2.158 2.158zm-3.942-6.758a.658.658 0 0 0 -.657.657v3.943a.658.658 0 0 0 .657.657h3.942a.658.658 0 0 0 .657-.657v-3.941a.658.658 0 0 0 -.657-.657z" transform="translate(-60.997 -259.261)"/><path d="m278.1 72.258h-3.941a2.161 2.161 0 0 1 -2.159-2.158v-3.942a2.161 2.161 0 0 1 2.158-2.158h3.942a2.161 2.161 0 0 1 2.158 2.158v3.942a2.161 2.161 0 0 1 -2.158 2.158zm-3.942-6.758a.658.658 0 0 0 -.657.657v3.943a.658.658 0 0 0 .657.657h3.942a.658.658 0 0 0 .657-.657v-3.942a.658.658 0 0 0 -.657-.657z" transform="translate(-259.261 -60.997)"/><path d="m279.038 275.754h-1.783v-2.534a1.221 1.221 0 0 0 -1.22-1.22h-2.815a1.221 1.221 0 0 0 -1.22 1.22v2.815a1.221 1.221 0 0 0 1.22 1.22h2.534v1.783a1.221 1.221 0 0 0 1.22 1.22h2.065a1.221 1.221 0 0 0 1.22-1.22v-2.065a1.221 1.221 0 0 0 -1.221-1.219zm-5.538-2.254h2.252v2.252h-2.252zm5.255 5.255h-1.5v-1.5h1.5z" transform="translate(-259.261 -259.261)"/><path d="m129.5 130.252h-.751a.751.751 0 0 1 -.749-.752v-.751a.751.751 0 0 1 .751-.751h.751a.751.751 0 0 1 .751.751v.751a.751.751 0 0 1 -.753.752z" transform="translate(-122.001 -122.001)"/><path d="m337.5 130.252h-.751a.751.751 0 0 1 -.749-.752v-.751a.751.751 0 0 1 .751-.751h.751a.751.751 0 0 1 .751.751v.751a.751.751 0 0 1 -.753.752z" transform="translate(-320.252 -122.001)"/><path d="m129.5 338.252h-.751a.751.751 0 0 1 -.749-.752v-.751a.751.751 0 0 1 .751-.751h.751a.751.751 0 0 1 .751.751v.751a.751.751 0 0 1 -.753.752z" transform="translate(-122.001 -320.252)"/></g></svg>