<svg xmlns="http://www.w3.org/2000/svg" width="22" height="22" viewBox="0 0 22 22"><g transform="translate(-1 -1)"><rect width="16" height="10" transform="translate(4 12)" fill="none" stroke="#fff" stroke-width="2"/><rect width="20" height="6" rx="1" transform="translate(2 6)" fill="none" stroke="#fff" stroke-width="2"/><path d="M12,22.5V6.5" fill="none" stroke="#fff" stroke-width="2"/><path d="M12,6h3.5a2,2,0,1,0,0-4,1.981,1.981,0,0,0-1.5.5C12.91,3.347,12,6,12,6Z" fill="none" stroke="#fff" stroke-width="2"/><path d="M12.5,6H9A2,2,0,0,1,9,2a1.981,1.981,0,0,1,1.5.5C11.59,3.347,12.5,6,12.5,6Z" fill="none" stroke="#fff" stroke-width="2"/></g></svg>