<svg height="24" viewBox="0 0 24 24" width="24" xmlns="http://www.w3.org/2000/svg"><g fill="none" stroke="#29c66f"><g opacity="0"><path d="m0 0h24v24h-24z" stroke="none"/><path d="m.5.5h23v23h-23z" fill="none"/></g><g stroke-width="2" transform="translate(0 -.25)"><path d="m4 12h16v10h-16z"/><rect height="6" rx="1" width="20" x="2" y="6"/><path d="m12 22.5v-16"/><path d="m12 6h3.5a2 2 0 1 0 0-4 1.981 1.981 0 0 0 -1.5.5c-1.09.847-2 3.5-2 3.5z"/><path d="m12.5 6h-3.5a2 2 0 0 1 0-4 1.981 1.981 0 0 1 1.5.5c1.09.847 2 3.5 2 3.5z"/></g></g></svg>