<svg height="18" viewBox="0 0 23.998 18" width="23.998" xmlns="http://www.w3.org/2000/svg" xmlns:xlink="http://www.w3.org/1999/xlink"><clipPath id="a"><path d="m0 0h23.998v18h-23.998z"/></clipPath><g clip-path="url(#a)" fill="none" stroke="#29c66f" stroke-width="2"><g stroke-linecap="round" stroke-linejoin="round" transform="translate(.002 -3)"><path d="m15 4v2"/><path d="m15 11v2"/><path d="m15 18v2"/></g><path d="m20954 10454h-18a2 2 0 0 1 -2-2v-3.169a3 3 0 0 0 0-5.655v-3.176a2 2 0 0 1 2-2h18a2 2 0 0 1 2 2v3.176a3 3 0 0 0 0 5.652v3.172a2 2 0 0 1 -2 2z" transform="translate(-20932.998 -10437)"/></g></svg>