<svg xmlns="http://www.w3.org/2000/svg" width="23.998" height="18" viewBox="0 0 23.998 18"><g transform="translate(-161.998 -2945)"><g transform="translate(162 2942)"><path d="M15,4V6" fill="none" stroke="#fff" stroke-linecap="round" stroke-linejoin="round" stroke-width="2"/><path d="M15,11v2" fill="none" stroke="#fff" stroke-linecap="round" stroke-linejoin="round" stroke-width="2"/><path d="M15,18v2" fill="none" stroke="#fff" stroke-linecap="round" stroke-linejoin="round" stroke-width="2"/></g><path d="M20954,10454h-18a2,2,0,0,1-2-2v-3.169a3,3,0,0,0,0-5.655V10440a2,2,0,0,1,2-2h18a2,2,0,0,1,2,2v3.176a3,3,0,0,0,0,5.652V10452A2,2,0,0,1,20954,10454Z" transform="translate(-20771 -7492)" fill="none" stroke="#fff" stroke-width="2"/></g></svg>